<?xml version="1.0" encoding="UTF-8"?>
<svg id="_레이어_2" data-name="레이어 2" xmlns="http://www.w3.org/2000/svg" width="19.5" height="20" viewBox="0 0 19.5 20">
  <defs>
    <style>
      .cls-1 {
        fill: #fff;
      }
    </style>
  </defs>
  <g id="_레이어_1-2" data-name="레이어 1">
    <path class="cls-1" d="M13.7,7.3c0,3.5-2.9,6.4-6.4,6.4v.9c4,0,7.3-3.3,7.3-7.3h-.9ZM7.3,13.7c-3.5,0-6.4-2.9-6.4-6.4h-.9c0,4,3.3,7.3,7.3,7.3v-.9ZM.9,7.3C.9,3.7,3.7.9,7.3.9v-.9C3.3,0,0,3.3,0,7.3h.9ZM7.3.9c3.5,0,6.4,2.9,6.4,6.4h.9C14.5,3.3,11.3,0,7.3,0v.9ZM11.5,12.6l7.4,7.4.6-.6-7.4-7.4-.6.6Z"/>
  </g>
</svg>