<?xml version="1.0" encoding="UTF-8"?>
<svg id="_레이어_2" data-name="레이어 2" xmlns="http://www.w3.org/2000/svg" width="18.91" height="20" viewBox="0 0 18.91 20">
  <defs>
    <style>
      .cls-1 {
        fill: #fff;
      }
    </style>
  </defs>
  <g id="_레이어_2-2" data-name=" 레이어 2">
    <g id="_레이어_1-2" data-name=" 레이어 1-2">
      <path class="cls-1" d="M.42,0c-.23,0-.42.19-.42.42s.19.42.42.42v-.84ZM2.66,15.79c0,.23.19.42.42.42s.42-.19.42-.42c0,0-.84,0-.84,0ZM.42.84h1.83v-.84H.42v.84ZM2.66,1.26v14.53h.84V1.26h-.84ZM2.24.84c.23,0,.42.19.42.42h.84c0-.69-.56-1.26-1.26-1.26v.84Z"/>
      <circle class="cls-1" cx="3.08" cy="18.31" r="1.67"/>
      <path class="cls-1" d="M5.6,17.88c-.23,0-.42.19-.42.42s.19.42.42.42v-.84ZM18.07,19.58c0,.23.19.42.42.42s.42-.19.42-.42h-.84ZM5.6,18.72h12.05v-.84H5.6v.84ZM18.07,19.14v.44h.84v-.44h-.84ZM17.65,18.72c.23,0,.42.19.42.42h.84c0-.69-.56-1.26-1.26-1.26v.84Z"/>
      <rect class="cls-1" x="5.03" y="11.62" width="13.4" height="4.38" rx=".84" ry=".84"/>
    </g>
  </g>
</svg>